<svg
  viewBox="0 0 25 25"
  fill="none"
  xmlns="http://www.w3.org/2000/svg"
>
  <path
    fill-rule="evenodd"
    clip-rule="evenodd"
    d="M17.8333 17.5H6.16667C5.7075 17.5 5.33334 17.1267 5.33334 16.6667V8.54171L11.5 13.1667C11.6483 13.2784 11.8242 13.3334 12 13.3334C12.1758 13.3334 12.3517 13.2784 12.5 13.1667L18.6667 8.54171V16.6667C18.6667 17.1267 18.2925 17.5 17.8333 17.5ZM17.2775 7.50004L12 11.4584L6.72251 7.50004H17.2775ZM17.8333 5.83337H6.16667C4.78834 5.83337 3.66667 6.95504 3.66667 8.33337V16.6667C3.66667 18.045 4.78834 19.1667 6.16667 19.1667H17.8333C19.2117 19.1667 20.3333 18.045 20.3333 16.6667V8.33337C20.3333 6.95504 19.2117 5.83337 17.8333 5.83337Z"
  />
</svg>