<svg
  viewBox="0 0 25 25"
  fill="none"
  xmlns="http://www.w3.org/2000/svg"
>
  <path
    d="M12 11.6662C11.3108 11.6662 10.75 11.1054 10.75 10.4162C10.75 9.72704 11.3108 9.16621 12 9.16621C12.6892 9.16621 13.25 9.72704 13.25 10.4162C13.25 11.1054 12.6892 11.6662 12 11.6662ZM12 7.49954C10.3917 7.49954 9.08333 8.80788 9.08333 10.4162C9.08333 12.0245 10.3917 13.3329 12 13.3329C13.6083 13.3329 14.9167 12.0245 14.9167 10.4162C14.9167 8.80788 13.6083 7.49954 12 7.49954ZM12 18.8716C10.6042 17.5516 6.99999 13.8458 6.99999 10.7683C6.99999 8.04746 9.24249 5.83329 12 5.83329C14.7575 5.83329 17 8.04746 17 10.7683C17 13.8458 13.3958 17.5516 12 18.8716ZM12 4.16663C8.32416 4.16663 5.33333 7.12746 5.33333 10.7683C5.33333 15.3308 11.2075 20.4175 11.4575 20.6316C11.6142 20.7658 11.8067 20.8333 12 20.8333C12.1933 20.8333 12.3858 20.7658 12.5425 20.6316C12.7925 20.4175 18.6667 15.3308 18.6667 10.7683C18.6667 7.12746 15.6758 4.16663 12 4.16663Z"
  />
</svg>