<svg
  viewBox="0 0 25 25"
  fill="none"
  xmlns="http://www.w3.org/2000/svg"
>
  <path
    d="M7.50008 5.83329C6.30508 5.83329 5.33341 6.80496 5.33341 7.99996C5.33341 14.1566 10.3426 19.1666 16.5001 19.1666C17.6942 19.1666 18.6667 18.195 18.6667 17C18.6667 16.9075 18.6609 16.8166 18.6492 16.7266L14.7992 15.8433C14.7226 15.99 14.6384 16.1491 14.5617 16.2975C14.1817 17.0225 13.9067 17.5491 13.2051 17.2666C10.4501 16.3 8.20091 14.05 7.22175 11.2616C6.92425 10.6075 7.49091 10.3108 8.20925 9.93579C8.35508 9.85913 8.51258 9.77663 8.65675 9.70163L7.77341 5.85079C7.68091 5.83913 7.59091 5.83329 7.50008 5.83329ZM16.5001 20.8333C9.42341 20.8333 3.66675 15.0766 3.66675 7.99996C3.66675 5.88579 5.38591 4.16663 7.50008 4.16663C7.71675 4.16663 7.93091 4.18496 8.13841 4.22079C8.34091 4.25329 8.54425 4.30496 8.74258 4.37329C9.01341 4.46746 9.21758 4.69496 9.28175 4.97496L10.4226 9.94496C10.4859 10.2183 10.4067 10.505 10.2117 10.7083C10.0984 10.8266 10.0959 10.8291 9.06258 11.37C9.89925 13.1816 11.3534 14.6308 13.1284 15.4391C13.6701 14.405 13.6734 14.4016 13.7917 14.2883C13.9951 14.0933 14.2834 14.0175 14.5551 14.0775L19.5259 15.2183C19.8051 15.2825 20.0326 15.4858 20.1259 15.7566C20.1942 15.9533 20.2459 16.1566 20.2801 16.3658C20.3151 16.5716 20.3334 16.785 20.3334 17C20.3334 19.1141 18.6134 20.8333 16.5001 20.8333Z"
  />
</svg>