<svg
  viewBox="-0.5 0.5 25 25"
  fill="none"
  xmlns="http://www.w3.org/2000/svg"
>
  <path
    fill-rule="evenodd"
    clip-rule="evenodd"
    d="M15.3333 11.6666H12.8333V9.16663C12.8333 8.70579 12.46 8.33329 12 8.33329C11.54 8.33329 11.1667 8.70579 11.1667 9.16663V12.5C11.1667 12.9608 11.54 13.3333 12 13.3333H15.3333C15.7942 13.3333 16.1667 12.9608 16.1667 12.5C16.1667 12.0391 15.7942 11.6666 15.3333 11.6666ZM12 19.1666C8.32417 19.1666 5.33334 16.1758 5.33334 12.5C5.33334 8.82413 8.32417 5.83329 12 5.83329C15.6758 5.83329 18.6667 8.82413 18.6667 12.5C18.6667 16.1758 15.6758 19.1666 12 19.1666ZM12 4.16663C7.40501 4.16663 3.66667 7.90496 3.66667 12.5C3.66667 17.095 7.40501 20.8333 12 20.8333C16.595 20.8333 20.3333 17.095 20.3333 12.5C20.3333 7.90496 16.595 4.16663 12 4.16663Z"
  />
</svg>